<?xml version="1.0" encoding="utf-8"?>
<!-- Generator: Adobe Illustrator 28.0.0, SVG Export Plug-In . SVG Version: 6.00 Build 0)  -->
<svg version="1.1" id="Layer_1" xmlns="http://www.w3.org/2000/svg" xmlns:xlink="http://www.w3.org/1999/xlink" x="0px" y="0px"
	 viewBox="0 0 792 612" style="enable-background:new 0 0 792 612;" xml:space="preserve">
<style type="text/css">
	.st0{fill:#EE2E24;}
	.st1{fill:#FEE200;}
	.st2{fill:#F36E25;}
</style>
<g>
	<g>
		<polygon class="st0" points="281.91,159.72 71.06,159.72 71.06,226.35 223.45,452.28 479.25,452.28 		"/>
		<g>
			<polygon class="st1" points="223.45,452.28 71.06,226.35 71.06,374.35 123.62,452.28 			"/>
		</g>
	</g>
	<g>
		<polygon class="st2" points="562.42,159.72 536.43,159.72 281.91,159.72 479.25,452.28 733.26,452.28 733.26,451.53 733.26,410 
			731.24,410 		"/>
		<polygon class="st1" points="675.41,159.72 562.42,159.72 731.24,410 733.26,410 733.26,245.49 		"/>
	</g>
</g>
<g>
	<path class="st1" d="M132.24,214.81h47.16l65.66,97.96v-97.96h48.72v182.38H247.4l-66.44-94.84v94.84h-48.72V214.81z"/>
	<path class="st0" d="M341.98,306.52c0-51.59,40.9-95.1,97.96-95.1c17.46,0,38.82,4.17,50.54,10.94v47.68
		c-12.77-6.51-27.36-10.16-42.73-10.16c-35.69,0-51.85,21.62-51.85,46.38c0,26.31,17.98,44.81,51.85,44.81
		c15.37,0,31.26-3.91,42.73-10.42v50.54c-11.46,5.73-32.83,9.38-49.76,9.38C381.58,400.58,341.98,357.59,341.98,306.52z"/>
	<path class="st1" d="M547.02,214.81h121.41v45.6h-71.91v22.67h59.92v44.55h-59.92v23.97h75.56v45.6H547.02V214.81z"/>
</g>
</svg>
